<?xml version="1.0" encoding="UTF-8"?>
<svg width="577px" height="304px" viewBox="0 0 577 304" version="1.1" xmlns="http://www.w3.org/2000/svg" xmlns:xlink="http://www.w3.org/1999/xlink">
    <!-- Generator: Sketch 43.2 (39069) - http://www.bohemiancoding.com/sketch -->
    <title>v2</title>
    <desc>Created with Sketch.</desc>
    <defs></defs>
    <g id="Page-1" stroke="none" stroke-width="1" fill="none" fill-rule="evenodd">
        <g id="v2" transform="translate(2.000000, 5.000000)">
            <path d="M19.958,204 L19.958,124.62 L37.206,124.62 C53.67,124.62 58.766,133.93 58.766,147.944 L58.766,179.5 C58.766,194.298 53.768,204 37.892,204 L19.958,204 Z M27.406,198.414 L37.402,198.414 C49.946,198.414 51.122,189.888 51.122,178.324 L51.122,148.728 C51.122,136.87 48.966,130.402 37.108,130.402 L27.406,130.402 L27.406,198.414 Z M74.1074568,204 L81.5554568,204 L81.5554568,124.62 L74.1074568,124.62 L74.1074568,204 Z M115.418914,204.98 C126.100914,204.98 133.646914,198.806 133.646914,186.948 C133.646914,177.932 128.256914,170.876 122.082914,164.996 L108.068914,151.766 C103.952914,147.846 102.482914,144.514 102.482914,140.202 C102.482914,133.048 107.088914,129.716 113.654914,129.716 C122.768914,129.716 125.512914,135.596 126.296914,145.592 L132.666914,143.926 C131.588914,129.324 125.120914,123.836 113.654914,123.836 C102.874914,123.836 95.7209136,129.912 95.7209136,140.888 C95.7209136,147.062 97.8769136,152.06 102.972914,156.862 L116.986914,170.288 C122.964914,175.972 126.688914,180.382 126.688914,187.438 C126.688914,195.474 122.572914,198.904 115.516914,198.904 C105.814914,198.904 103.266914,191.26 102.188914,181.46 L95.6229136,183.42 C96.5049136,196.356 102.482914,204.98 115.418914,204.98 Z M156.33837,204 L163.78637,204 L163.78637,130.402 L178.38837,130.402 L178.38837,124.62 L141.34437,124.62 L141.34437,130.402 L156.33837,130.402 L156.33837,204 Z M190.005827,204 L190.005827,124.62 L207.939827,124.62 C222.737827,124.62 227.637827,132.264 227.637827,144.808 C227.637827,153.824 225.285827,161.566 216.661827,163.428 L228.813827,204 L221.561827,204 L209.899827,164.996 L197.453827,164.996 L197.453827,204 L190.005827,204 Z M197.453827,159.508 L207.547827,159.508 C217.347827,159.508 220.385827,154.608 220.385827,144.808 C220.385827,135.008 217.837827,130.206 207.743827,130.206 L197.453827,130.206 L197.453827,159.508 Z M243.273284,204 L250.721284,204 L250.721284,124.62 L243.273284,124.62 L243.273284,204 Z M286.152741,204.98 C300.950741,204.98 304.968741,195.18 304.968741,181.264 L304.968741,176.56 L297.912741,176.56 L297.912741,181.754 C297.912741,192.142 296.148741,199.002 286.250741,199.002 C276.450741,199.002 273.608741,193.122 273.608741,181.362 L273.608741,147.552 C273.608741,136.968 275.470741,129.814 286.250741,129.814 C296.148741,129.814 297.912741,136.282 297.912741,146.572 L297.912741,151.178 L304.968741,151.178 L304.968741,146.376 C304.968741,132.558 300.362741,123.836 286.152741,123.836 C270.374741,123.836 266.062741,134.028 266.062741,148.63 L266.062741,180.186 C266.062741,194.004 270.080741,204.98 286.152741,204.98 Z M329.326198,204 L336.774198,204 L336.774198,130.402 L351.376198,130.402 L351.376198,124.62 L314.332198,124.62 L314.332198,130.402 L329.326198,130.402 L329.326198,204 Z M402.541111,204.882 C415.967111,204.882 420.965111,195.18 420.965111,178.03 C420.965111,162.742 416.555111,153.628 404.795111,153.628 C398.915111,153.628 394.995111,155.98 392.643111,158.92 L393.035111,131.382 L417.437111,131.382 L417.535111,124.62 L386.665111,124.62 L386.665111,165.78 L392.643111,165.78 C395.289111,161.37 398.817111,159.214 402.933111,159.214 C410.969111,159.214 413.811111,164.506 413.811111,178.912 C413.811111,192.142 411.851111,199.1 402.835111,199.1 C394.505111,199.1 392.055111,193.22 392.055111,183.518 L384.901111,183.518 C384.901111,197.336 389.801111,204.882 402.541111,204.882 Z M445.028568,204 L452.280568,204 L452.280568,124.62 L446.498568,124.62 C442.970568,129.52 436.600568,132.558 432.778568,133.636 L432.778568,139.418 C434.052568,139.026 443.460568,136.478 445.028568,134.224 L445.028568,204 Z M470.366025,204 L506.332025,204 L506.332025,197.924 L478.794025,197.924 L498.590025,167.936 C503.392025,160.586 507.998025,153.726 507.998025,144.024 C507.998025,131.284 501.922025,123.836 489.966025,123.836 C476.540025,123.836 470.954025,131.578 470.954025,146.18 L470.954025,148.14 L478.108025,148.14 L478.108025,146.376 C478.108025,137.066 480.460025,129.814 490.260025,129.814 C497.414025,129.814 500.844025,135.008 500.844025,143.436 C500.844025,152.942 496.434025,158.724 491.730025,165.976 L470.366025,198.708 L470.366025,204 Z" id="DISTRICT-512" fill="#000000"></path>
            <path d="M14.87,298.814 C25.674,298.814 28.56,291.488 28.56,281.202 L28.56,278.242 L24.712,278.242 L24.712,281.868 C24.712,290.082 22.862,295.484 14.87,295.484 C6.582,295.484 4.362,290.23 4.362,281.35 L4.362,254.858 C4.362,246.422 6.212,240.724 14.87,240.724 C22.714,240.724 24.712,245.756 24.712,254.266 L24.712,257.3 L28.56,257.3 L28.56,254.266 C28.56,244.054 25.304,237.394 14.87,237.394 C3.4,237.394 0.292,245.016 0.292,255.302 L0.292,280.758 C0.292,290.748 3.03,298.814 14.87,298.814 Z M79.3675882,298.814 C67.6755882,298.814 64.5675882,291.192 64.5675882,280.98 L64.5675882,254.784 C64.5675882,244.572 67.9715882,237.394 79.3675882,237.394 C90.6895882,237.394 94.1675882,244.646 94.1675882,254.784 L94.1675882,281.054 C94.1675882,291.266 91.0595882,298.814 79.3675882,298.814 Z M79.3675882,295.484 C87.9515882,295.484 90.0975882,290.008 90.0975882,281.868 L90.0975882,254.192 C90.0975882,246.052 88.0255882,240.724 79.3675882,240.724 C70.7095882,240.724 68.6375882,246.052 68.6375882,254.192 L68.6375882,281.868 C68.6375882,290.008 70.7095882,295.484 79.3675882,295.484 Z M132.099176,298 L135.651176,298 L135.651176,247.31 L156.001176,298 L159.183176,298 L159.183176,238.06 L155.631176,238.06 L155.631176,288.676 L135.281176,238.06 L132.099176,238.06 L132.099176,298 Z M210.286764,298.74 C218.130764,298.74 223.680764,294.596 223.680764,285.568 C223.680764,279.204 219.610764,273.876 214.800764,269.14 L203.996764,258.484 C200.666764,255.154 199.630764,252.416 199.630764,249.382 C199.630764,243.314 203.700764,240.65 209.176764,240.65 C216.354764,240.65 218.944764,244.794 219.610764,253.23 L223.014764,252.416 C222.274764,241.094 217.242764,237.394 209.102764,237.394 C201.258764,237.394 195.930764,241.76 195.930764,249.678 C195.930764,253.6 197.484764,257.374 201.184764,261.074 L212.136764,271.952 C217.020764,276.836 219.906764,280.536 219.906764,285.79 C219.906764,292.672 216.280764,295.41 210.360764,295.41 C202.516764,295.41 200.370764,290.008 199.334764,282.09 L195.856764,283.2 C196.596764,292.672 200.814764,298.74 210.286764,298.74 Z M274.044353,298.814 C285.218353,298.814 288.918353,292.376 288.918353,283.94 L288.918353,238.06 L284.996353,238.06 L284.996353,284.014 C284.996353,290.526 282.184353,295.484 274.044353,295.484 C265.386353,295.484 263.092353,290.6 263.092353,284.014 L263.092353,238.06 L259.096353,238.06 L259.096353,283.94 C259.096353,292.376 262.278353,298.814 274.044353,298.814 Z M327.367941,298 L349.493941,298 L349.493941,294.818 L331.363941,294.818 L331.363941,238.06 L327.367941,238.06 L327.367941,298 Z M384.761529,298 L388.757529,298 L388.757529,241.316 L400.449529,241.316 L400.449529,238.06 L372.773529,238.06 L372.773529,241.316 L384.761529,241.316 L384.761529,298 Z M435.643117,298 L439.639117,298 L439.639117,238.06 L435.643117,238.06 L435.643117,298 Z M478.902705,298 L482.454705,298 L482.454705,247.31 L502.804705,298 L505.986705,298 L505.986705,238.06 L502.434705,238.06 L502.434705,288.676 L482.084705,238.06 L478.902705,238.06 L478.902705,298 Z M558.200293,298.814 C564.490293,298.814 567.672293,295.928 569.152293,291.266 L569.744293,298 L572.334293,298 L572.334293,269.436 L559.014293,269.436 L559.014293,272.544 L568.560293,272.544 L568.560293,281.35 C568.560293,290.156 566.414293,295.484 558.496293,295.484 C549.986293,295.484 547.914293,289.86 547.914293,281.128 L547.914293,255.006 C547.914293,246.644 549.616293,240.724 558.422293,240.724 C566.192293,240.724 568.412293,245.46 568.412293,254.266 L568.412293,256.56 L572.260293,256.56 L572.260293,254.488 C572.260293,243.98 568.856293,237.394 558.422293,237.394 C546.878293,237.394 543.844293,244.646 543.844293,255.154 L543.844293,280.61 C543.844293,291.192 546.804293,298.814 558.200293,298.814 Z" id="CONSULTING" fill="#000000"></path>
            <rect id="Rectangle-2" stroke="#000000" stroke-width="10" x="3" y="0" width="567" height="222"></rect>
        </g>
    </g>
</svg>